<svg width="692" height="692" viewBox="0 0 692 692" fill="none" xmlns="http://www.w3.org/2000/svg">
  <path d="M1 514.19V177.81L193.955 1H498.045L691 177.81V514.19L498.045 691H193.955L1 514.19Z" fill="#09C777" fill-opacity="0.14" stroke="#09C777" stroke-width="2"/>
  <path d="M443.209 421.178C443.209 464.913 410.308 497.815 346.511 497.815C289.133 497.815 253.423 468.123 246.201 418.771H282.312C287.127 448.462 307.189 467.321 346.109 467.321C386.233 467.321 407.098 449.666 407.098 419.573C407.098 397.505 395.462 373.832 334.875 373.832H324.442V345.745H332.869C390.246 345.745 399.474 322.072 399.474 304.016C399.474 276.732 381.418 260.682 346.912 260.682C310.8 260.682 292.343 278.738 287.528 308.43H251.818C258.639 259.88 291.942 230.188 347.313 230.188C405.493 230.188 435.586 261.485 435.586 303.615C435.586 327.689 425.154 346.548 398.271 357.782C431.573 370.221 443.209 393.493 443.209 421.178Z" fill="#09C777"/>
</svg>
