<svg width="953" height="909" viewBox="0 0 953 909" fill="none" xmlns="http://www.w3.org/2000/svg">
  <path d="M952.611 0V150.587L900.461 100.846V0H899.505L899.667 0.155288V100.085L847.518 50.3434V0H846.724V50.3434L794.574 100.085V0H476.111V50.3434L423.961 100.085V0H423.005L371.018 49.5859V0H370.224V50.3434L318.074 100.085V0H0V151.879H157.878L105.728 201.62H0V202.533L0.162806 202.377H104.93L52.7808 252.119H0V252.876H52.7808L104.93 302.617H0V303.375H104.93L52.7808 353.116H0V353.874H51.9866L0 403.463V404.376H104.93L52.7808 454.117H0V908.996H318.066V808.911L370.216 858.653V908.996H371.01V858.653L423.159 808.911V908.841L422.997 908.996H423.954V808.154L476.103 758.413V909H794.566V858.657L794.729 858.501L794.566 858.346V808.915L846.716 858.657V909H847.51V859.414L899.497 909H900.453V808.915L952.603 858.657V909H953V454.121H795.122L847.272 404.38H952.996V403.467L952.833 403.623H848.066L900.215 353.881H952.996V353.124H900.215L848.066 303.383H952.996V302.625H848.066L900.215 252.884H952.996V252.126H901.009L952.996 202.54V201.628H848.066L900.215 151.886H952.996V0H952.599H952.611ZM847.117 51.0366L899.663 101.157V151.121H794.566V101.157L847.113 51.0366H847.117ZM900.457 101.914L952.047 151.121H900.457V101.914ZM582.558 858.122L530.409 808.381H635.176L687.325 858.122H582.558ZM371.574 757.121L423.723 707.38H529.285L581.434 757.121H371.574ZM264.559 858.122H159.792L211.941 808.381H316.708L264.559 858.122ZM53.3406 555.657L105.49 505.915V605.845L53.3406 655.586V555.657ZM157.874 454.879L106.284 504.086V454.879H157.874ZM159.232 353.343V252.657L211.381 202.915V403.846L159.232 453.587V353.658L159.395 353.503L159.232 353.347V353.343ZM316.712 100.623H211.945L159.796 50.8813H264.563L316.712 100.623ZM529.614 50.8813H634.382L582.232 100.623H477.465L529.614 50.8813ZM794.01 505.381L846.16 555.122H741.393L689.243 505.381H794.01ZM740.67 555.501L688.123 605.621H635.74V505.377H688.123L740.67 555.497V555.501ZM793.78 808.158V857.589L689.247 757.883H793.78V807.847L793.617 808.003L793.78 808.158ZM582.562 757.121L530.015 707.001L582.562 656.881H634.946V757.125H582.562V757.121ZM529.289 706.622H424.521L476.671 656.881H581.438L529.289 706.622ZM106.058 807.624L53.9085 757.883H263.769L211.619 807.624H106.058ZM158.442 657.415V757.121H53.9085L158.442 657.415ZM476.901 101.914L528.491 151.121H476.901V101.914ZM688.119 101.38L740.269 151.121H530.409L582.558 101.38H688.119ZM793.776 252.657V353.343L741.627 403.085V202.154L793.776 152.413V252.342L793.613 252.497L793.776 252.653V252.657ZM583.352 656.12L634.942 606.913V656.12H583.352ZM371.574 656.12L423.723 606.379H476.901H634.382L582.232 656.12H371.574ZM265.123 757.121V707.914L316.712 757.121H265.123ZM317.272 757.879V807.086L265.683 757.879H317.272ZM264.329 757.121H159.232V707.157L211.778 657.037L264.325 707.157V757.121H264.329ZM265.123 252.657L317.272 202.915V302.621V403.085L265.123 353.343V252.657ZM370.617 152.034L370.78 151.879H529.285L581.434 201.62H370.776L318.626 151.879H370.45L370.613 152.034H370.617ZM688.683 453.583V353.654L740.833 303.913V403.842L688.683 453.583ZM211.385 656.34L159.236 706.081V505.908L211.385 555.649V656.336V656.34ZM210.825 454.875L159.236 504.082V454.875H210.825ZM159.402 504.995L211.389 455.409V554.581L159.402 504.995ZM318.074 454.117V354.412L370.224 404.153V504.84L318.074 554.581V454.117ZM369.664 201.616H318.074V152.409L369.664 201.616ZM318.074 202.374H370.458L423.005 252.494L370.458 302.614H318.074V202.37V202.374ZM687.893 353.34L635.744 403.081V252.653L635.906 252.497L635.744 252.342V202.912L687.893 252.653V353.34ZM687.893 453.583L635.906 403.997L687.893 354.412V453.583ZM634.95 605.083L582.8 555.342V354.412L634.787 403.997L634.95 404.153V454.117V605.08V605.083ZM423.731 252.876H529.293L581.442 302.617H529.622L529.459 302.462L529.297 302.617H476.119H371.586L423.735 252.876H423.731ZM582.006 453.583L529.857 403.842V303.913L582.006 353.654V453.583ZM423.965 353.654L476.115 303.913V353.34L475.952 353.495L476.115 353.65V454.492V504.836L423.965 554.577V353.646V353.654ZM475.555 303.375L423.965 352.582V303.375H475.555ZM476.115 505.912V605.617H371.582L476.115 505.912ZM476.909 303.375H528.498L476.909 352.582V303.375ZM529.058 303.909V403.081L477.072 353.495L529.058 303.909ZM530.416 303.375H582.236L582.399 303.53L582.562 303.375H634.946V403.081L530.412 303.375H530.416ZM583.36 302.617L634.95 253.41V302.617H583.36ZM582.399 302.462L530.412 252.876H634.386L582.399 302.462ZM423.167 303.375V353.34L370.621 403.46L318.074 353.34V303.375H423.171H423.167ZM371.018 404.153L423.167 354.412V454.341L371.018 504.082V404.153ZM423.167 455.409V555.338L371.018 605.08V505.15L423.167 455.409ZM370.224 605.08L318.237 555.494L370.224 505.908V605.08ZM369.664 605.614H318.074V556.406L369.664 605.614ZM476.909 454.492V354.408L529.058 404.149V504.836L476.909 554.577V454.492ZM529.853 404.906L582.002 454.648V554.577L529.853 504.836V404.906ZM634.95 151.871V251.577L530.416 151.871H634.95ZM634.39 252.115H529.622L477.473 202.374H582.24L634.39 252.115ZM476.349 202.374L528.498 252.115H423.731L371.582 202.374H476.349ZM476.909 555.653L529.456 505.533L582.002 555.653V605.617H476.905V555.653H476.909ZM582.8 556.41L634.39 605.617H582.8V556.41ZM635.744 404.91L687.333 454.117H635.744V404.91ZM740.841 302.837L688.691 352.578V252.649L740.841 202.908V302.837ZM688.294 251.96L635.748 201.84V151.875H740.845V201.84L688.298 251.96H688.294ZM317.284 201.082L265.695 151.875H317.284V201.082ZM265.135 152.413L317.121 201.999L265.135 251.585V152.413ZM212.191 656.34V556.41L264.341 606.151V706.081L212.191 656.34ZM264.341 605.083L212.191 555.342V455.413L264.341 505.154V605.083ZM212.751 454.875H317.284V554.581L212.751 454.875ZM370.462 606.375L370.625 606.53L370.788 606.375H422.607L318.074 706.081V606.375H370.458H370.462ZM689.255 454.117L793.788 354.412V454.117H689.255ZM741.639 201.082V151.875H793.228L741.639 201.082ZM529.463 150.962L477.477 101.376H581.45L529.463 150.962ZM265.699 151.117L317.288 101.91V151.117H265.699ZM264.742 150.962L212.755 101.376H316.728L264.742 150.962ZM263.785 151.875L159.252 251.581V151.875H263.785ZM264.345 152.409V252.338L212.195 302.08V202.15L264.345 152.409ZM212.195 303.152L264.345 253.41V353.34L212.195 403.081V303.152ZM264.742 354.029L317.288 404.149V454.114H212.191V404.149L264.738 354.029H264.742ZM211.401 454.114H159.811L211.401 404.906V454.114ZM264.742 758.026L316.728 807.612H212.755L264.742 758.026ZM265.139 706.835V505.908L317.125 555.494L317.288 555.649V606.371V706.835L317.125 706.99L317.288 707.145V756.576L265.139 706.835ZM318.646 706.611L370.796 656.87H475.563L423.414 706.611H318.646ZM422.619 707.369L370.633 756.955L318.646 707.369H422.619ZM635.756 757.11V657.404L740.289 757.11H635.756ZM636.315 656.866H741.083L793.232 706.607H688.465L636.315 656.866ZM636.315 656.109L688.302 606.523L740.289 656.109H636.315ZM635.756 655.575V606.367H687.345L635.756 655.575ZM635.756 504.609V455.401L687.345 504.609H635.756ZM793.776 50.12H742.187L793.776 0.912787V50.12ZM793.776 50.8775V151.121H741.393L688.846 101.001L741.393 50.8813H793.776V50.8775ZM688.119 100.619H583.352L635.501 50.8775H740.269L688.119 100.619ZM318.066 151.117V101.91L369.656 151.117H318.066ZM158.672 50.8775L210.821 100.619H106.054L53.9045 50.8775H158.672ZM106.054 101.376H211.615L263.765 151.117H53.9045L106.054 101.376ZM158.438 455.413V504.843L158.275 504.999L158.438 505.154V656.34L106.288 706.081V505.15L158.438 455.409V455.413ZM105.494 606.913V706.842L53.3446 756.583V656.654L105.494 606.913ZM52.5504 756.583L0.559892 707.001L52.5465 657.415V756.587L52.5504 756.583ZM105.331 807.999L52.7847 858.119H0.397087V757.875H52.7808L105.327 807.995L105.331 807.999ZM106.058 808.378H210.825L158.676 858.119H53.9045L106.054 808.378H106.058ZM318.07 707.914L369.66 757.121H318.07V707.914ZM476.905 758.413L528.495 807.62H476.905V758.413ZM477.465 757.879H634.946H688.123L740.273 807.62H529.618L477.469 757.879H477.465ZM636.3 808.378H741.067L793.216 858.119H688.449L636.3 808.378ZM793.216 858.876L741.23 908.462L689.243 858.876H793.216ZM847.284 757.117L847.121 756.962L846.958 757.117H741.396L689.247 707.376H899.906L952.055 757.117H847.288H847.284ZM794.34 706.619L742.191 656.877H846.958L899.107 706.619H794.34ZM846.958 656.12H741.396L689.247 606.379H899.107L846.958 656.12ZM689.247 605.621L741.396 555.88H846.958L899.107 605.621H689.243H689.247ZM848.082 555.88H952.055L900.068 605.466L848.082 555.88ZM847.288 555.122L795.138 505.381H899.906L952.055 555.122H847.288ZM688.453 504.624L636.304 454.883H688.127L688.29 455.038L688.453 454.883H846.958L899.107 504.624H688.453ZM741.071 50.1238H530.412L582.558 0.37875H793.216L741.067 50.12L741.071 50.1238ZM581.434 0.37875L476.901 100.085V0.37875H581.434ZM476.107 100.842L475.944 100.997L476.107 101.153V151.117H371.574L476.107 51.4115V100.842ZM423.163 0.912787V100.842L371.014 150.583V50.6578L423.163 0.912787ZM370.22 51.4115V150.583L318.233 100.997L370.22 51.4115ZM317.272 0.37875V100.085L212.739 0.37875H317.272ZM211.615 0.37875L263.765 50.12H53.1103L0.956979 0.37875H211.611H211.615ZM51.9866 50.12H0.397087V0.912787L51.9866 50.12ZM0.397087 50.8775H52.7808L105.327 100.997L52.7808 151.117H0.397087V50.8775ZM158.438 152.413V201.62H106.848L158.438 152.413ZM106.054 202.377H158.438V302.621H106.054L105.891 302.466L53.5074 252.501L106.054 202.381V202.377ZM158.438 303.379V352.586L106.848 303.379H158.438ZM105.891 303.534L157.878 353.12H53.9045L105.891 303.534ZM0.956979 403.623L53.1064 353.881H157.874L105.724 403.623H0.956979ZM158.438 354.415V454.121H53.9045L158.438 354.415ZM105.494 454.879V504.843L52.9475 554.963L0.397087 504.843V454.879H105.494ZM0.397087 505.915L52.5465 555.657V656.343L0.397087 706.085V505.912V505.915ZM51.9866 757.121H0.397087V707.914L51.9866 757.121ZM0.397087 858.88H51.9866L0.397087 908.087V858.88ZM53.1103 858.88H263.765L211.615 908.621H0.956979L53.1064 858.88H53.1103ZM212.739 908.621L317.272 808.915V908.621H212.739ZM370.617 857.963L318.233 807.999L318.07 807.843V757.879H370.454L370.617 758.034L370.78 757.879H423.163V807.843L370.617 857.963ZM423.958 757.879H475.547L423.958 807.086V757.879ZM476.901 808.378H529.285L581.831 858.497L529.285 908.617H476.901V808.374V808.378ZM530.409 908.621L582.558 858.88H688.119L740.269 908.621H530.405H530.409ZM742.187 908.621L793.776 859.414V908.621H742.187ZM794.57 757.879H846.16L794.57 807.086V757.879ZM794.733 807.999L846.72 758.413V857.585L794.733 807.999ZM899.663 908.083L847.514 858.342V758.413L899.663 808.154V908.083ZM952.607 857.585L848.074 757.879H952.607V857.585ZM952.607 756.587L901.017 707.38H952.607V756.587ZM900.223 706.622L847.677 656.503L900.223 606.383H952.607V706.626H900.223V706.622ZM952.607 605.621H901.017L952.607 556.414V605.621ZM848.074 454.879H952.607V554.585L848.074 454.879ZM794.566 453.583V404.376H846.156L794.566 453.583ZM846.95 403.619H794.566V303.375H846.95L847.113 303.53L899.497 353.495L846.95 403.615V403.619ZM794.566 302.617V253.41L846.156 302.617H794.566ZM847.113 302.462L795.126 252.876H899.099L847.113 302.462ZM952.043 202.377L899.894 252.119H795.126L847.276 202.377H952.043ZM794.562 251.585V151.879H899.096L794.562 251.585Z" fill="url(#paint0_radial_555_139)"/>
  <defs>
    <radialGradient id="paint0_radial_555_139" cx="0" cy="0" r="1" gradientUnits="userSpaceOnUse" gradientTransform="translate(462.392 454.5) scale(371.187 354.046)">
      <stop stop-color="#09C777"/>
      <stop offset="0.21" stop-color="#49EEA8"/>
      <stop offset="0.43" stop-color="#065031"/>
      <stop offset="1" stop-color="#09C777" stop-opacity="0"/>
    </radialGradient>
  </defs>
</svg>
